#!OML:ASF H:\Male1\Project 1\Capture day 1\Session 1\Male1.ASF
:FULLY-SPECIFIED
:DEGREES
291
root 10.5294 15.2918 8.26417 -1.04166 -174.855 -0.499901
lowerback 8.23228 0.692139 -1.40898
upperback 3.38268 0.559947 -0.261103
thorax -1.13104 0.16483 0.473942
lowerneck -6.28439 5.04683 6.84991
upperneck -2.50244 6.13022 -7.11077
head 0.775762 2.87491 -3.32342
rclavicle -2.48481e-015 3.08116e-015
rhumerus -34.2206 -5.14711 -84.0753
rradius 28.8478
rwrist -15.8641
rhand -25.4095 3.00549
rfingers 7.12502
rthumb 1.1161 -26.9713
lclavicle -2.48481e-015 3.08116e-015
lhumerus -42.1432 11.0262 76.6282
lradius 23.1655
lwrist -6.36067
lhand -19.144 6.61126
lfingers 7.12502
lthumb 7.16611 36.4699
rfemur -4.25507 12.4035 26.6064
rtibia 26.7304
rfoot -32.1816 -30.4474
rtoes -10.7975
lfemur -8.0605 -16.9308 -21.2427
ltibia 29.9687
lfoot -19.7821 18.5898
ltoes -21.5172
292
root 10.5375 15.291 8.27204 -1.19346 -175.341 -0.613346
lowerback 8.23279 0.759867 -1.59224
upperback 3.39501 0.631108 -0.331487
thorax -1.12121 0.197675 0.497944
lowerneck -6.02422 5.08524 6.89477
upperneck -2.51429 6.2014 -7.04858
head 0.73046 2.91886 -3.31345
rclavicle -3.52843e-015 -3.18055e-015
rhumerus -34.2158 -5.46895 -84.0417
rradius 28.8537
rwrist -15.8875
rhand -26.1742 2.98818
rfingers 7.12502
rthumb 0.377451 -26.9912
lclavicle -3.52843e-015 -3.18055e-015
lhumerus -41.5661 9.67144 77.5071
lradius 24.9797
lwrist -3.02206
lhand -20.0573 6.83747
lfingers 7.12502
lthumb 6.2845 36.7242
rfemur -4.18518 12.4325 26.5329
rtibia 26.7906
rfoot -31.8357 -30.3199
rtoes -11.538
lfemur -7.75821 -17.3444 -21.4864
ltibia 29.9107
lfoot -19.9705 19.2269
ltoes -19.9949
293
root 10.5498 15.2921 8.27996 -1.30265 -175.799 -0.764159
lowerback 8.18185 0.830199 -1.83668
upperback 3.43474 0.699347 -0.444868
thorax -1.05514 0.227136 0.512852
lowerneck -5.91729 5.1678 7.10812
upperneck -2.49062 6.3116 -7.11522
head 0.738621 2.97582 -3.3745
rclavicle -2.13942e-014 2.68359e-015
rhumerus -34.2514 -5.51589 -84.1806
rradius 29.0878
rwrist -16.3845
rhand -26.7 2.60637
rfingers 7.12502
rthumb -0.13032 -27.3733
lclavicle -2.13942e-014 2.68359e-015
lhumerus -40.962 7.96292 78.3557
lradius 26.8601
lwrist 0.521039
lhand -21.0005 7.77986
lfingers 7.12502
lthumb 5.37387 37.6917
rfemur -4.13167 12.5777 26.4212
rtibia 26.8392
rfoot -32.3099 -29.6868
rtoes -9.82546
lfemur -7.52805 -17.2813 -21.6681
ltibia 29.8056
lfoot -19.8945 19.6505
ltoes -20.1477
294
root 10.565 15.2962 8.28712 -1.39027 -176.252 -0.814703
lowerback 8.10739 0.931449 -1.97992
upperback 3.45981 0.820319 -0.520903
thorax -0.991849 0.284516 0.505013
lowerneck -5.82894 5.18554 7.33274
upperneck -2.47747 6.33182 -7.21902
head 0.74211 2.98658 -3.45412
rclavicle 2.83268e-015 5.96354e-016
rhumerus -34.2841 -5.894 -84.1296
rradius 29.1751
rwrist -16.4648
rhand -26.5076 2.31491
rfingers 7.12502
rthumb 0.0554444 -27.6648
lclavicle 2.83268e-015 5.96354e-016
lhumerus -40.3862 6.07774 79.1615
lradius 28.6688
lwrist 3.39214
lhand -21.8003 9.16248
lfingers 7.12502
lthumb 4.6016 39.0925
rfemur -4.07728 12.6895 26.4192
rtibia 26.8704
rfoot -32.8053 -28.9841
rtoes -8.12446
lfemur -7.33038 -16.8141 -21.6473
ltibia 29.6411
lfoot -19.8179 19.6803
ltoes -20.4269
295
root 10.5735 15.2987 8.29274 -1.5533 -176.706 -0.694872
lowerback 8.11621 0.991661 -1.87875
upperback 3.46177 0.906433 -0.522201
thorax -0.995128 0.327773 0.439187
lowerneck -5.60889 5.2109 7.53495
upperneck -2.54595 6.36848 -7.44291
head 0.701662 3.00632 -3.57472
rclavicle -1.87106e-014 7.95139e-015
rhumerus -34.3579 -6.04578 -84.0613
rradius 29.1922
rwrist -16.5876
rhand -26.2474 2.14888
rfingers 7.12502
rthumb 0.30678 -27.8306
lclavicle -1.87106e-014 7.95139e-015
lhumerus -40.0032 4.56527 79.7395
lradius 30.4565
lwrist 5.3171
lhand -22.1663 10.2372
lfingers 7.12502
lthumb 4.24814 40.1745
rfemur -3.95227 12.6248 26.5747
rtibia 26.8656
rfoot -32.7779 -28.5558
rtoes -8.08411
lfemur -7.04308 -16.328 -21.4877
ltibia 29.4613
lfoot -19.865 19.6
ltoes -20.1335
296
root 10.5756 15.2976 8.29754 -1.76633 -177.08 -0.753333
lowerback 8.14039 1.06729 -1.61371
upperback 3.51197 1.01321 -0.754226
thorax -0.95018 0.379954 0.0422647
lowerneck -5.44901 5.18617 7.63852
upperneck -2.59046 6.34256 -7.35244
head 0.656974 2.99828 -3.56848
rclavicle 3.8763e-015 -4.37326e-015
rhumerus -34.3805 -6.66076 -84.0821
rradius 29.0948
rwrist -16.4171
rhand -26.0401 2.23759
rfingers 7.12502
rthumb 0.507039 -27.7415
lclavicle 3.8763e-015 -4.37326e-015
lhumerus -39.5892 3.04846 80.0168
lradius 32.1434
lwrist 6.64206
lhand -22.339 10.8385
lfingers 7.12502
lthumb 4.08141 40.7792
rfemur -3.73487 12.5052 26.5163
rtibia 26.7623
rfoot -32.4413 -28.4401
rtoes -8.81286
lfemur -6.70538 -16.1201 -21.6178
ltibia 29.3626
lfoot -19.9288 19.7802
ltoes -19.9613
297
root 10.5834 15.297 8.3068 -1.94792 -177.455 -0.849337
lowerback 8.20677 1.12044 -1.56406
upperback 3.54943 1.07332 -0.935993
thorax -0.944507 0.406978 -0.1787
lowerneck -5.39629 5.27673 7.86208
upperneck -2.53909 6.46265 -7.33989
head 0.682124 3.0602 -3.60277
rclavicle 6.80837e-015 7.95139e-016
rhumerus -34.4237 -6.86151 -84.2111
rradius 29.0759
rwrist -16.3598
rhand -25.9401 2.2706
rfingers 7.12502
rthumb 0.603564 -27.7083
lclavicle 6.80837e-015 7.95139e-016
lhumerus -39.2231 1.60627 80.3057
lradius 33.674
lwrist 7.53044
lhand -22.8525 11.3717
lfingers 7.12502
lthumb 3.58555 41.3213
rfemur -3.51587 12.6358 26.4766
rtibia 26.6246
rfoot -32.2314 -28.4182
rtoes -9.02423
lfemur -6.44919 -15.9088 -21.7357
ltibia 29.336
lfoot -19.9766 19.9717
ltoes -20.0199
298
root 10.5922 15.3005 8.31774 -1.95315 -177.804 -0.442029
lowerback 8.10481 1.09989 -1.17201
upperback 3.52158 1.08539 -0.875882
thorax -0.91067 0.419141 -0.336412
lowerneck -5.24836 5.38009 8.29362
upperneck -2.57522 6.58998 -7.7043
head 0.688295 3.12122 -3.81191
rclavicle -8.79622e-015 6.75868e-015
rhumerus -34.5211 -6.60832 -84.3321
rradius 29.1465
rwrist -16.5058
rhand -25.9819 2.13558
rfingers 7.12502
rthumb 0.563181 -27.8434
lclavicle -8.79622e-015 6.75868e-015
lhumerus -38.9325 0.400534 80.6287
lradius 35.1226
lwrist 8.10357
lhand -23.5318 11.944
lfingers 7.12502
lthumb 2.92951 41.9036
rfemur -3.58242 12.9596 26.968
rtibia 26.6307
rfoot -32.2627 -28.3481
rtoes -8.63612
lfemur -6.41275 -15.8165 -21.2377
ltibia 29.2445
lfoot -19.9313 20.1634
ltoes -19.9551
299
root 10.5984 15.3002 8.32659 -1.93941 -178.102 -0.247862
lowerback 8.01093 1.10749 -0.944123
upperback 3.46735 1.12119 -0.86747
thorax -0.910448 0.442369 -0.457669
lowerneck -5.24818 5.44404 8.4718
upperneck -2.40087 6.68091 -7.78817
head 0.763887 3.16873 -3.87005
rclavicle -9.93923e-016 1.23246e-014
rhumerus -34.6794 -6.71223 -84.2647
rradius 29.197
rwrist -16.5329
rhand -25.897 2.12046
rfingers 7.12502
rthumb 0.645191 -27.8583
lclavicle -9.93923e-016 1.23246e-014
lhumerus -38.6429 -0.706112 80.8981
lradius 36.5113
lwrist 8.5718
lhand -23.8416 12.2369
lfingers 7.12502
lthumb 2.63033 42.2004
rfemur -3.75605 13.2463 27.2235
rtibia 26.843
rfoot -32.3456 -28.3496
rtoes -8.69655
lfemur -6.29868 -15.9147 -21.0137
ltibia 29.0174
lfoot -19.9123 20.4161
ltoes -19.3412
